# AST/ASF file generated using VICON BodyLanguage
# -----------------------------------------------
:version 1.10
:name VICON
:units
  mass 1.0
  length 0.45
  angle deg
:documentation
   .ast/.asf automatically generated from VICON data using
   VICON BodyBuilder and BodyLanguage model FoxedUp or BRILLIANT.MOD
:root
   order TX TY TZ RX RY RZ
   axis XYZ
   position 0 0 0  
   orientation 0 0 0 
:bonedata
  begin
     id 1 
     name lhipjoint
     direction 0.623529 -0.717805 0.309788 
     length 2.23224 
     axis 0 0 0  XYZ
  end
  begin
     id 2 
     name lfemur
     direction 0.34202 -0.939693 0  
     length 7.11402  
     axis 0 0 20  XYZ
    dof rx ry rz
    limits (-160.0 20.0)
           (-70.0 70.0)
           (-60.0 70.0)
  end
  begin
     id 3 
     name ltibia
     direction 0.34202 -0.939693 0   
     length 6.78496   
     axis 0 0 20   XYZ
    dof rx
    limits (-10.0 170.0)
  end
  begin
     id 4 
     name lfoot
     direction 0.125078 -0.343648 0.930732   
     length 1.84054   
     axis -90 7.62852e-016 20   XYZ
    dof rx rz
    limits (-45.0 90.0)
           (-70.0 20.0)
  end
  begin
     id 5 
     name ltoes
     direction 1.53565e-011 -4.21893e-011 1   
     length 0.916474   
     axis -90 7.62852e-016 20   XYZ
    dof rx
    limits (-90.0 20.0)
  end
  begin
     id 6 
     name rhipjoint
     direction -0.564688 -0.757748 0.327026   
     length 2.11457  
     axis 0 0 0  XYZ 
  end
  begin
     id 7 
     name rfemur
     direction -0.34202 -0.939693 0   
     length 7.14609   
     axis 0 0 -20   XYZ
    dof rx ry rz
    limits (-160.0 20.0)
           (-70.0 70.0)
           (-70.0 60.0)
  end
  begin
     id 8 
     name rtibia
     direction -0.34202 -0.939693 0   
     length 6.78101   
     axis 0 0 -20   XYZ
    dof rx
    limits (-10.0 170.0)
 end
 begin
     id 9 
     name rfoot
     direction -0.0992671 -0.272734 0.956955   
     length 1.96168  
     axis -90 -7.62852e-016 -20   XYZ
    dof rx rz
    limits (-45.0 90.0)
           (-20.0 70.0)
  end
  begin
     id 10 
     name rtoes
     direction -1.5356e-011 -4.21891e-011 1   
     length 0.982933   
     axis -90 -7.62852e-016 -20   XYZ
    dof rx
    limits (-90.0 20.0)
  end
  begin
     id 11 
     name lowerback
     direction -0.00596953 0.998668 0.0512524   
     length 1.87557   
     axis 0 0 0   XYZ
    dof rx ry rz
    limits (-20.0 45.0)
           (-30.0 30.0)
           (-30.0 30.0)
  end
  begin
     id 12 
     name upperback
     direction 0.00584879 0.999652 0.0257308   
     length 1.87883   
     axis 0 0 0   XYZ
    dof rx ry rz
    limits (-20.0 45.0)
           (-30.0 30.0)
           (-30.0 30.0)
  end
  begin
     id 13 
     name thorax
     direction 0.010104 0.999947 0.00178881   
     length 1.87779   
     axis 0 0 0   XYZ
    dof rx ry rz
    limits (-20.0 45.0)
           (-30.0 30.0)
           (-30.0 30.0)
  end
  begin
     id 14 
     name lowerneck
     direction 0.0120771 0.995934 -0.0892773   
     length 1.40897   
     axis 0 0 0   XYZ
    dof rx ry rz
    limits (-20.0 45.0)
           (-30.0 30.0)
           (-30.0 30.0)
  end
  begin
     id 15 
     name upperneck
     direction -0.030568 0.999465 -0.0116366   
     length 1.38661   
     axis 0 0 0   XYZ
    dof rx ry rz
    limits (-20.0 45.0)
           (-30.0 30.0)
           (-30.0 30.0)
  end
  begin
     id 16
     name head
     direction -0.0170715 0.999854 -0.00104426  
     length 1.47052  
     axis 0 0 0   XYZ
    dof rx ry rz
    limits (-20.0 45.0)
           (-30.0 30.0)
           (-30.0 30.0)
  end
  begin
     id 17 
     name lclavicle
     direction 0.977763 0.206143 0.038532  
     length 3.02424  
     axis 0 0 0   XYZ
    dof ry rz
    limits (-20.0 10.0)
           (0.0 20.0)
  end
  begin
     id 18 
     name lhumerus
     direction 1 -4.48965e-011 -2.62654e-027   
     length 4.68382   
     axis 180 -30 -90   XYZ
    dof rx ry rz
    limits (-60.0 90.0)
           (-90.0 90.0)
           (-90.0 90.0)
  end
  begin
     id 19
     name lradius
     direction 1 -4.48973e-011 -1.54954e-027   
     length 2.98124   
     axis 180 -30 -90   XYZ
    dof rx
    limits (-10.0 170.0)
  end
  begin
     id 20
     name lwrist
     direction 1 -4.48959e-011 7.20928e-028   
     length 1.49062   
     axis -5.52449e-016 90 90   XYZ
    dof ry
    limits (-180.0 0.0)
 end
  begin
     id 21 
     name lhand
     direction 1 -4.48971e-011 1.44186e-027   
     length 0.707595   
     axis -9.20027e-016 90 90   XYZ
    dof rx rz
    limits (-90.0 90.0)
           (-45.0 45.0)
  end
  begin
     id 22 
     name lfingers
     direction 1 -4.48985e-011 2.88371e-027   
     length 0.570481   
     axis -1.84005e-015 90 90   XYZ
    dof rx
    limits (0.0 90.0)
  end
  begin
     id 23
     name lthumb
     direction 0.707107 -6.34929e-011 0.707107   
     length 0.819101   
     axis -90 45 2.85299e-015   XYZ
    dof rx rz
    limits (-45.0 45.0)
           (-45.0 45.0)
  end
  begin
     id 24 
     name rclavicle
     direction -0.958661 0.284411 -0.00895327   
     length 3.11921  
     axis 0 0 0   XYZ 
    dof ry rz
    limits (-10.0 20.0)
           (-20.0 0.0)
  end
  begin
     id 25 
     name rhumerus
     direction -1 -4.48963e-011 -4.22193e-027  
     length 4.75876   
     axis 180 30 90   XYZ
    dof rx ry rz
    limits (-90.0 60.0)
           (-90.0 90.0)
           (-90.0 90.0)
  end
  begin
     id 26 
     name rradius
     direction -1 -4.48968e-011 -1.07616e-027   
     length 2.93293   
     axis 180 30 90   XYZ
    dof rx
    limits (-10.0 170.0)
  end
  begin
     id 27 
     name rwrist
     direction -1 -4.48965e-011 7.20928e-028   
     length 1.46647   
     axis -5.52449e-016 -90 -90   XYZ
    dof ry
    limits (-180.0 0.0)
  end
  begin
     id 28
     name rhand
     direction -1 -4.48971e-011 1.44186e-027   
     length 0.831748   
     axis -9.20027e-016 -90 -90   XYZ
    dof rx rz
    limits (-90.0 90.0)
           (-45.0 45.0)
  end
  begin
     id 29
     name rfingers
     direction -1 -4.48961e-011 2.88371e-027   
     length 0.670577   
     axis -1.84005e-015 -90 -90   XYZ
    dof rx
    limits (0.0 90.0)
  end
  begin
     id 30
     name rthumb
     direction -0.707107 -6.34929e-011 0.707107   
     length 0.962818   
     axis -90 -45 -2.85299e-015   XYZ
    dof rx rz
    limits (-45.0 45.0)
           (-45.0 45.0)
  end
:hierarchy
  begin
    root lhipjoint rhipjoint lowerback
    lhipjoint lfemur
    lfemur ltibia
    ltibia lfoot
    lfoot ltoes
    rhipjoint rfemur
    rfemur rtibia
    rtibia rfoot
    rfoot rtoes
    lowerback upperback
    upperback thorax
    thorax lowerneck lclavicle rclavicle
    lowerneck upperneck
    upperneck head
    lclavicle lhumerus
    lhumerus lradius
    lradius lwrist
    lwrist lhand lthumb
    lhand lfingers
    rclavicle rhumerus
    rhumerus rradius
    rradius rwrist
    rwrist rhand rthumb
    rhand rfingers
  end

#!OML:ASF E:\id_vita\Project 1\Capture day 1\Session 1\Female.ASF
:FULLY-SPECIFIED
:DEGREES
327
root 4.38341 27.3671 -1.06513 559.442 101.512 544.708
lowerback -14.2705 0.7294 -5.28181
upperback -3.58235 1.93814 -1.12343
thorax 4.07286 0.988651 2.14266
lowerneck 8.47093 1.33991 -3.70091
upperneck -7.33886 2.0454 7.25115
head -3.6845 0.777453 2.69997
rclavicle 3.50358e-015 -4.77083e-015
rhumerus -38.9312 -6.63966 -85.3708
rradius 71.5073
rwrist -4.24878
rhand -23.0841 14.4209
rfingers 7.12502
rthumb 3.36189 -15.5324
lclavicle 3.50358e-015 -4.77083e-015
lhumerus -25.8628 8.39555 80.5997
lradius 58.9125
lwrist -12.6169
lhand -9.68723 22.4519
lfingers 7.12502
lthumb 16.2848 51.7881
rfemur -22.2806 -0.0515158 16.1659
rtibia 48.4634
rfoot -8.2923 1.79216
rtoes -25.3443
lfemur -26.4301 -7.36155 -23.3797
ltibia 24.6657
lfoot -13.0527 7.84382
ltoes 9.2552
328
root 4.40165 27.3657 -1.07307 559.138 101.552 544.53
lowerback -14.3846 0.746786 -5.26175
upperback -3.37722 1.96801 -1.1448
thorax 4.35092 0.989238 2.1205
lowerneck 8.24073 1.31783 -3.71979
upperneck -7.36028 2.03601 7.39881
head -3.65407 0.77158 2.74967
rclavicle 2.09966e-014 -1.82882e-014
rhumerus -38.2517 -6.4209 -85.5255
rradius 72.3498
rwrist -3.96649
rhand -23.3954 14.7829
rfingers 7.12502
rthumb 3.06124 -15.1749
lclavicle 2.09966e-014 -1.82882e-014
lhumerus -24.6873 7.19683 80.7342
lradius 59.923
lwrist -12.4463
lhand -11.0624 21.8895
lfingers 7.12502
lthumb 14.9604 51.3292
rfemur -22.7301 -0.163188 16.182
rtibia 49.3733
rfoot -8.27 0.788243
rtoes -24.6577
lfemur -26.1803 -7.3076 -23.4449
ltibia 24.6042
lfoot -13.1557 7.93894
ltoes 9.35539
329
root 4.41456 27.3644 -1.07827 558.485 101.537 543.941
lowerback -14.3359 0.765162 -5.18938
upperback -3.3273 1.977 -1.13269
thorax 4.37865 0.991508 2.09353
lowerneck 8.13361 1.1966 -3.62613
upperneck -7.28253 1.87692 7.34803
head -3.60237 0.695861 2.7277
rclavicle 9.06955e-016 7.95139e-016
rhumerus -37.8908 -6.05127 -85.6727
rradius 73.4555
rwrist -3.86469
rhand -23.8621 14.7327
rfingers 7.12502
rthumb 2.61055 -15.2311
lclavicle 9.06955e-016 7.95139e-016
lhumerus -23.8701 5.84777 80.8083
lradius 61.1328
lwrist -12.031
lhand -11.8911 21.5649
lfingers 7.12502
lthumb 14.1619 51.0622
rfemur -23.2311 -0.214774 16.3313
rtibia 50.1686
rfoot -8.15161 -0.469608
rtoes -24.9584
lfemur -26.0446 -7.21935 -23.4032
ltibia 24.5133
lfoot -13.3696 8.03963
ltoes 9.62948
330
root 4.42659 27.3669 -1.08408 558.135 101.489 543.673
lowerback -14.4107 0.77581 -5.18898
upperback -3.18943 1.99533 -1.11038
thorax 4.56296 0.990956 2.12426
lowerneck 8.05332 1.13824 -3.47669
upperneck -7.53086 1.83062 7.31016
head -3.6598 0.669684 2.69515
rclavicle -3.23895e-014 -1.11319e-014
rhumerus -37.4971 -5.67564 -85.731
rradius 74.6299
rwrist -3.86674
rhand -24.3932 14.8835
rfingers 7.12502
rthumb 2.09764 -15.0859
lclavicle -3.23895e-014 -1.11319e-014
lhumerus -22.8118 4.6529 80.8793
lradius 62.1464
lwrist -12.0319
lhand -12.0633 21.2458
lfingers 7.12502
lthumb 13.996 50.7546
rfemur -23.6807 -0.339889 16.4057
rtibia 50.8387
rfoot -8.05698 -1.73005
rtoes -25.6203
lfemur -25.9004 -7.24864 -23.3944
ltibia 24.4165
lfoot -13.5162 8.12474
ltoes 10.0186
331
root 4.43938 27.3706 -1.09228 558.175 101.342 543.842
lowerback -14.0282 0.731003 -5.29018
upperback -3.31174 1.9204 -1.07262
thorax 4.22568 0.965171 2.19527
lowerneck 8.14977 1.13266 -3.38525
upperneck -7.54846 1.82728 7.25045
head -3.67967 0.666018 2.66184
rclavicle 1.38652e-014 -1.86858e-014
rhumerus -37.3824 -5.30897 -85.6744
rradius 75.6141
rwrist -3.88966
rhand -24.4899 15.3513
rfingers 7.12502
rthumb 2.00425 -14.619
lclavicle 1.38652e-014 -1.86858e-014
lhumerus -22.1185 3.63342 80.8513
lradius 63.1304
lwrist -12.7378
lhand -12.3624 20.8963
lfingers 7.12502
lthumb 13.7078 50.4248
rfemur -24.0114 -0.582365 16.3958
rtibia 51.3939
rfoot -7.97084 -2.83363
rtoes -25.5448
lfemur -25.7067 -7.33361 -23.4655
ltibia 24.3331
lfoot -13.536 8.05322
ltoes 10.3337
332
root 4.44791 27.376 -1.10049 558.424 101.135 544.096
lowerback -13.791 0.649418 -5.43166
upperback -3.49547 1.81283 -1.03223
thorax 3.9045 0.925636 2.29004
lowerneck 8.60254 1.14277 -3.32738
upperneck -7.66532 1.83833 7.1809
head -3.78967 0.662147 2.62998
rclavicle -2.1183e-014 -7.15625e-015
rhumerus -37.2401 -4.94373 -85.6172
rradius 76.5064
rwrist -3.84046
rhand -24.7736 15.3546
rfingers 7.12502
rthumb 1.73025 -14.6181
lclavicle -2.1183e-014 -7.15625e-015
lhumerus -21.5595 2.50409 80.8078
lradius 64.0893
lwrist -13.0725
lhand -12.7508 20.5636
lfingers 7.12502
lthumb 13.3334 50.117
rfemur -24.4596 -0.797743 16.4001
rtibia 51.8594
rfoot -7.7282 -3.91368
rtoes -24.5096
lfemur -25.6622 -7.38202 -23.528
ltibia 24.2492
lfoot -13.525 7.82242
ltoes 10.7127
333
root 4.45474 27.3827 -1.10671 558.314 100.964 543.945
lowerback -13.8076 0.54555 -5.45513
upperback -3.50153 1.67678 -0.968645
thorax 3.91484 0.858109 2.34807
lowerneck 8.73799 1.24294 -3.50943
upperneck -7.71036 1.96388 7.3191
head -3.8357 0.719349 2.6949
rclavicle -2.72583e-014 1.19271e-015
rhumerus -36.8478 -4.42709 -85.6374
rradius 77.4816
rwrist -3.752
rhand -25.1285 15.4134
rfingers 7.12502
rthumb 1.38743 -14.5619
lclavicle -2.72583e-014 1.19271e-015
lhumerus -20.6328 1.58719 80.6995
lradius 64.8847
lwrist -13.2587
lhand -12.9136 19.9871
lfingers 7.12502
lthumb 13.1765 49.5507
rfemur -24.9979 -0.899166 16.4966
rtibia 52.2523
rfoot -7.30535 -5.06797
rtoes -23.6581
lfemur -25.693 -7.41211 -23.4877
ltibia 24.1869
lfoot -13.3698 7.64386
ltoes 10.6943
